<svg width="376" height="512" viewBox="0 0 376 512" fill="none" xmlns="http://www.w3.org/2000/svg">
<path d="M5.42763 276.84C6.16109 291.936 21.2704 284.901 28.0183 280.211C34.4728 275.668 36.3798 279.478 36.9665 270.685C37.4066 264.823 37.9934 259.107 37.7 253.245C27.8716 252.366 17.3097 254.711 9.24163 260.573C4.98755 263.504 -2.64047 273.177 5.42763 276.84Z" fill="#F6D2A2"/>
<path d="M306.588 462.378C318.176 469.559 339.447 491.249 321.99 501.801C305.267 517.042 295.879 484.947 281.21 480.55C287.518 471.904 295.439 463.99 306.588 462.378Z" fill="#F6D2A2"/>
<path d="M99.1642 486.852C85.5218 488.904 77.8938 501.215 66.4517 507.516C55.7432 513.818 51.6358 505.465 50.7556 503.706C49.142 502.973 49.2887 504.439 46.6482 501.801C36.6732 486.12 56.9167 474.688 67.4786 466.921C82.1479 463.99 91.3895 476.74 99.1642 486.852Z" fill="#F6D2A2"/>
<path d="M370.986 274.935C370.252 290.03 355.143 282.996 348.395 278.306C341.94 273.763 340.033 277.573 339.447 268.78C339.007 262.918 338.42 257.202 338.713 251.34C348.542 250.461 359.103 252.806 367.172 258.668C371.279 261.599 379.054 271.271 370.986 274.935Z" fill="#F6D2A2"/>
<path d="M330.939 90.8635C383.308 72.3977 342.381 0.732803 296.759 32.3885C266.834 6.74152 225.613 2.05179 182.339 2.05179C139.945 5.42253 99.6043 13.1899 71.4393 37.811C25.9646 8.50017 -15.9895 78.8461 37.4066 96.5791C22.444 154.614 39.4603 213.822 37.1132 272.884C34.9128 325.936 20.977 397.015 50.4623 444.645C75.5467 485.387 129.53 499.896 173.977 501.508C230.747 503.559 299.546 489.637 327.125 434.679C353.529 382.359 346.195 317.143 342.821 260.72C339.447 203.71 345.754 145.821 330.939 90.8635Z" fill="#69D7E2"/>
<path d="M374.946 265.995C373.479 262.918 370.692 259.401 368.052 257.495C361.304 252.659 352.649 250.021 343.701 249.728C343.407 240.642 343.114 230.676 343.114 218.072V206.641C342.967 170.589 342.527 154.761 340.474 134.976C338.86 119.441 336.366 105.079 332.846 91.5962C344.728 87.0531 352.502 79.5788 355.583 69.9063C358.517 60.9665 357.05 50.8542 352.062 41.9144C346.928 33.1212 338.713 26.5263 329.178 23.8883C318.91 21.1038 307.761 23.1555 297.053 30.3367C287.518 22.2762 276.516 16.1209 264.193 11.4312C242.336 3.37076 216.958 0.293121 182.486 0.293121V1.75866L182.339 0.293121C145.519 3.2242 118.234 8.93981 95.6436 19.9314C86.5486 24.328 78.4805 29.6039 71.4393 35.7592C60.584 29.0177 49.2887 27.4056 38.8735 30.6298C29.1918 33.5609 20.8303 40.4489 15.8428 49.3887C10.8552 58.3285 9.68171 68.5873 13.0556 77.3805C16.4296 86.1737 24.2043 93.0618 35.793 97.3118C32.1257 112.114 30.2187 127.795 29.9253 145.088C29.6319 161.942 30.3654 175.425 33.0058 205.908C34.9128 228.624 35.6463 239.03 35.9397 251.633C25.9646 251.194 15.9895 253.831 8.50817 259.254C5.8677 261.159 2.93385 264.53 1.61361 267.754C-0.293389 271.858 0.440074 275.521 4.25408 277.72C4.84085 284.754 8.80155 287.979 14.8159 287.392C19.2167 286.953 24.4977 284.608 29.0451 281.384C30.072 280.651 31.0988 280.065 32.1257 279.625C32.5658 279.478 32.8591 279.332 33.2992 279.185C33.2992 279.185 34.1794 278.892 34.4728 278.746C34.9128 278.599 35.3529 278.453 35.6463 278.159C35.3529 285.047 34.7661 292.229 33.4459 308.643C31.979 327.108 31.2455 337.221 30.9521 348.505C29.6319 390.42 34.6195 420.903 49.5821 445.084C54.2763 452.705 59.9973 459.447 66.7451 465.602C65.4249 466.481 59.8506 470.585 58.0903 471.904C51.9292 476.593 47.6751 480.55 45.1813 484.947C41.9541 490.663 41.9541 496.378 45.6214 502.387L45.7681 502.534L45.9148 502.68C47.5284 504.292 48.4086 504.732 49.5821 504.732H49.7288H50.0222C50.1689 505.025 50.3156 505.172 50.4623 505.465C50.9023 506.197 51.3424 506.784 51.7825 507.37C55.4498 511.62 60.584 512.646 67.4786 508.542C71.1459 506.637 73.7864 504.439 79.3607 499.749C79.5074 499.602 79.5074 499.602 79.6541 499.456C88.6023 491.835 93.0031 489.051 99.6043 488.025L101.951 487.585C102.832 488.025 103.712 488.318 104.739 488.757C125.569 497.111 149.773 501.654 174.271 502.534C205.956 503.706 236.468 499.749 262.286 490.37C269.181 487.878 275.635 484.947 281.796 481.723C285.611 483.188 288.838 486.266 294.999 493.447C295.292 493.74 295.292 493.74 295.439 494.033C295.732 494.327 295.732 494.473 295.879 494.62C296.172 495.059 296.612 495.352 296.906 495.792C301.747 501.508 304.974 504.292 308.641 505.904C313.482 507.956 318.176 506.93 323.017 502.534C331.525 497.258 332.112 489.051 326.538 479.671C322.577 473.076 315.682 466.188 309.228 461.792C316.856 454.317 323.457 445.378 328.591 435.265C342.674 407.127 348.102 374.299 347.808 332.091C347.661 317.143 347.075 304.099 345.461 279.185V278.453C346.195 278.746 346.928 279.185 347.661 279.772C352.209 282.849 357.49 285.341 361.891 285.78C367.905 286.366 371.866 283.142 372.453 276.108C376.12 273.763 376.853 270.099 374.946 265.995ZM328.298 26.9659C337.1 29.3108 344.728 35.4661 349.422 43.6731C354.116 51.8801 355.436 61.113 352.796 69.32C350.009 77.9667 342.967 84.8548 331.965 88.9583C329.765 81.0444 327.125 73.277 324.191 65.8027C328.445 62.1389 330.498 57.5957 327.125 51.1473C323.751 44.699 317.883 43.9662 311.868 45.8714C308.054 40.8886 303.8 36.4919 299.4 32.3884C309.081 26.2332 319.056 24.4745 328.298 26.9659ZM15.5494 76.5012C12.4689 68.5873 13.4957 59.2078 18.1899 51.0008C22.884 42.7938 30.5121 36.3454 39.607 33.7074C48.9953 30.9229 59.1171 32.2419 69.0922 38.104C63.3712 43.2334 58.237 49.0956 53.8362 55.544C46.2082 51.587 38.4335 50.8542 34.0327 58.9147C29.4852 67.5614 34.7661 72.9839 42.2475 77.0874C41.2206 79.5788 40.1938 82.2168 39.3136 84.8548C38.2868 88.0789 37.2599 91.4497 36.3798 94.8204C25.6712 90.7169 18.63 84.4151 15.5494 76.5012ZM33.2992 276.254C33.1525 276.254 32.2724 276.547 32.2724 276.694C31.8323 276.84 31.3922 276.987 30.9521 277.28C29.7786 277.72 28.6051 278.453 27.4315 279.332C23.3241 282.263 18.3366 284.461 14.5226 284.754C10.1218 285.194 7.62801 283.289 7.18793 278.013C10.2685 276.987 11.5887 276.254 12.7623 274.496L10.4152 272.737C9.53502 273.909 8.65486 274.349 6.01439 275.228C5.8677 275.228 5.8677 275.228 5.72101 275.375C3.37393 274.056 2.93385 272.004 4.25408 269.073C5.42762 266.435 8.06809 263.357 10.2685 261.745C17.3097 256.616 26.698 254.125 36.0864 254.711C36.0864 258.375 36.2331 262.039 36.0864 265.556C36.0864 265.995 36.0864 266.289 35.9397 266.728C35.793 268.78 35.793 269.659 35.6463 270.685C35.2062 274.935 34.9128 275.521 33.2992 276.254ZM77.6004 497.404C77.4537 497.551 77.4537 497.551 77.307 497.697C71.8794 502.387 69.2389 504.292 65.865 506.197C60.2907 509.568 56.4767 508.835 53.8362 505.611C53.3961 505.172 53.1027 504.585 52.8093 504.146C52.6626 503.999 52.5159 503.706 52.3693 503.559C52.3693 503.559 52.3693 503.559 52.3693 503.413C52.6626 500.775 53.6895 498.87 56.33 494.766C56.4767 494.62 56.4766 494.62 56.4766 494.473C58.0903 492.128 58.8237 490.809 59.5572 489.197L56.9167 488.025C56.33 489.344 55.5965 490.516 54.1296 492.861C53.9829 493.008 53.9829 493.008 53.9829 493.154C51.3424 496.965 50.1689 499.309 49.5821 501.947H49.4354C49.4354 501.947 49.4354 501.947 49.2887 501.947H48.9953C48.7019 501.801 48.2619 501.508 47.6751 500.921C41.9541 491.835 46.5016 484.068 59.4105 474.395C61.0241 473.223 66.4517 469.412 67.9187 468.24C68.2121 468.24 68.5054 468.093 68.7988 467.947C76.7202 474.688 85.9619 480.55 96.2303 485.387C96.2303 485.533 96.377 485.68 96.5237 485.826C90.5093 487.292 85.8152 490.37 77.6004 497.404ZM323.897 481.43C328.445 489.051 328.298 495.206 322.577 499.456C322.137 498.577 321.844 497.551 321.257 496.085C321.257 495.939 321.257 495.939 321.11 495.792C319.056 490.223 317.736 487.878 315.242 485.24L313.189 487.292C315.389 489.344 316.416 491.542 318.47 496.671C318.47 496.818 318.47 496.818 318.616 496.965C319.35 498.87 319.79 500.042 320.23 501.068C316.416 504.292 313.042 504.878 309.521 503.266C306.441 501.947 303.507 499.163 298.813 493.887C298.519 493.594 298.226 493.154 297.933 492.714C297.786 492.568 297.639 492.421 297.493 492.128C297.199 491.835 297.199 491.835 297.053 491.542C291.625 485.24 288.398 481.869 284.877 479.964C293.092 475.275 300.426 469.999 307.028 463.843C313.189 468.386 320.083 475.128 323.897 481.43ZM325.951 433.946C313.335 459.3 291.038 477.18 261.113 488.025C235.588 497.258 205.37 501.068 174.124 499.896C120.288 497.99 73.6397 479.231 51.7825 443.765C37.1132 420.17 32.2724 390.127 33.5926 348.798C34.0327 337.514 34.6194 327.402 36.0864 308.936C37.7 288.125 38.1401 282.116 38.5802 272.737C38.8735 265.995 38.8735 259.107 38.7268 251.78C38.4335 238.883 37.7 228.624 35.793 205.615C33.1525 175.132 32.4191 161.796 32.7124 145.088C33.1525 123.105 36.0864 103.76 42.2475 85.441C52.2226 55.6905 70.5591 35.6126 96.9638 22.5693C119.114 11.7243 145.959 6.15528 182.486 3.2242C216.665 3.2242 241.603 6.30183 263.167 14.2157C288.984 23.7418 308.201 40.4489 321.403 66.0958C329.912 86.9065 334.899 109.329 337.54 135.123C339.593 154.761 340.033 170.589 340.18 206.495V217.926C340.327 235.659 340.62 248.116 341.354 260.573C341.647 265.409 341.794 267.461 342.527 279.039C344.141 303.953 344.728 316.85 344.874 331.798C345.168 373.859 339.887 406.248 325.951 433.946ZM370.839 273.47C370.692 273.47 370.546 273.323 370.399 273.323C367.758 272.444 366.878 271.858 365.998 270.832L363.651 272.59C364.971 274.349 366.291 275.082 369.225 276.108C368.639 281.384 366.145 283.289 361.891 282.849C358.077 282.556 353.089 280.211 348.982 277.427C347.808 276.547 346.635 275.961 345.461 275.375C345.314 275.375 345.168 275.228 345.021 275.228C344.434 267.168 344.434 265.116 344.141 260.866C343.994 258.228 343.847 255.59 343.701 252.952C351.916 253.099 359.984 255.59 366.145 260.133C368.345 261.745 370.986 264.823 372.159 267.461C373.626 269.952 373.333 272.151 370.839 273.47Z" fill="black"/>
<path d="M204.578 153.192C204.725 160.667 206.192 168.874 204.872 176.788C202.818 180.598 199.004 181.038 195.63 182.503C190.936 181.77 186.975 178.693 185.068 174.296C183.894 165.356 185.361 156.856 185.801 147.916C185.801 147.623 191.376 148.063 196.363 149.529C200.617 150.848 204.578 153.046 204.578 153.192Z" fill="white"/>
<path d="M163.064 153.779C158.957 169.313 168.492 194.667 184.188 173.857C183.014 165.063 184.335 156.563 184.775 147.917C184.921 147.184 163.211 152.753 163.064 153.779Z" fill="white"/>
<path d="M206.338 160.08C206.045 155.684 205.898 153.925 205.898 151.727V150.701L204.872 150.408L186.388 144.692V143.666L184.481 144.106H184.335V144.253L163.504 149.529L162.771 149.675L162.477 150.408C159.25 158.175 159.984 169.9 164.091 177.081C168.785 185.288 176.413 185.434 184.188 176.055C186.388 180.305 190.496 183.236 195.19 183.969H195.63L196.07 183.822C196.657 183.529 197.243 183.383 198.27 182.943C198.417 182.943 198.417 182.943 198.564 182.796C202.818 181.331 204.578 180.158 206.045 177.374L206.192 177.227V176.934C206.632 174.296 206.779 171.512 206.779 168.434C206.779 166.236 206.632 164.184 206.338 160.08ZM182.868 154.658C182.721 157.296 182.574 158.322 182.428 159.787C182.134 165.21 182.134 169.313 182.574 173.417C175.68 182.21 170.252 182.21 166.585 175.615C163.064 169.46 162.331 159.055 164.971 152.167L183.454 147.477C183.308 149.382 183.161 151.287 182.868 154.658ZM203.405 176.348C202.378 178.107 201.058 178.986 197.537 180.158C197.39 180.158 197.39 180.158 197.243 180.305C196.363 180.598 195.777 180.891 195.336 181.038C191.376 180.305 188.002 177.667 186.388 174.003C185.948 170.046 185.948 165.943 186.242 160.52C186.388 159.055 186.388 158.029 186.682 155.391C186.975 152.02 187.122 149.968 187.122 148.063L203.111 152.899C203.111 154.805 203.258 156.563 203.551 160.374C203.845 164.331 203.991 166.382 203.991 168.727C203.991 171.512 203.845 174.003 203.405 176.348Z" fill="black"/>
<path d="M74.7617 89.3414C88.2574 141.808 172.312 128.325 169.085 75.7118C165.271 12.6936 61.8527 24.8576 74.7617 89.3414Z" fill="white"/>
<path d="M170.552 75.5653C169.672 60.3237 162.924 48.4528 151.775 40.9786C141.8 34.2371 128.598 31.5991 115.542 33.2112C102.487 34.9699 90.4578 40.832 82.5364 50.0649C73.7348 60.3237 70.3609 73.8067 73.4415 89.3414L74.7617 89.0483L73.4415 89.3414C87.2306 143.273 173.779 130.23 170.552 75.5653ZM76.0819 89.0483C73.1481 74.2463 76.3753 61.6427 84.5901 52.1167C92.0714 43.47 103.367 37.7544 115.836 36.1423C128.304 34.5302 140.773 37.0216 150.162 43.47C160.577 50.5046 166.885 61.4961 167.765 76.005C170.845 127.152 89.1376 139.463 76.0819 89.0483Z" fill="black"/>
<path d="M97.9391 96.0828C105.798 96.0828 112.168 89.1933 112.168 80.6947C112.168 72.196 105.798 65.3065 97.9391 65.3065C90.0806 65.3065 83.7099 72.196 83.7099 80.6947C83.7099 89.1933 90.0806 96.0828 97.9391 96.0828Z" fill="black"/>
<path d="M104.394 88.169C106.257 88.169 107.768 86.3974 107.768 84.212C107.768 82.0266 106.257 80.255 104.394 80.255C102.53 80.255 101.02 82.0266 101.02 84.212C101.02 86.3974 102.53 88.169 104.394 88.169Z" fill="white"/>
<path d="M192.643 79.5323C203.058 139.766 301.635 123.792 287.406 63.1182C274.644 8.60015 189.122 23.6952 192.643 79.5323Z" fill="white"/>
<path d="M288.726 62.8251C275.671 6.69493 187.655 22.0831 191.176 79.6788V79.8254C196.017 108.257 221.395 122.766 249.413 118.076C262.175 115.878 273.617 109.722 281.098 100.636C289.313 90.5238 292.247 77.4805 288.726 62.8251ZM278.898 98.8774C271.857 107.378 261.148 113.24 248.973 115.291C222.421 119.688 198.657 106.059 193.963 79.3857C190.736 25.1607 273.764 10.6519 286.086 63.4113C289.313 77.3339 286.673 89.4979 278.898 98.8774Z" fill="black"/>
<path d="M216.847 92.2824C224.544 92.2824 230.783 85.3929 230.783 76.8943C230.783 68.3956 224.544 61.5061 216.847 61.5061C209.151 61.5061 202.911 68.3956 202.911 76.8943C202.911 85.3929 209.151 92.2824 216.847 92.2824Z" fill="black"/>
<path d="M223.302 84.3685C225.084 84.3685 226.529 82.5969 226.529 80.4116C226.529 78.2262 225.084 76.4546 223.302 76.4546C221.519 76.4546 220.074 78.2262 220.074 80.4116C220.074 82.5969 221.519 84.3685 223.302 84.3685Z" fill="white"/>
<path d="M166.093 122.118C154.504 123.144 145.116 136.773 151.13 147.618C159.052 161.981 176.802 146.299 187.803 147.765C200.566 148.058 210.981 161.248 221.103 150.11C232.398 137.799 216.262 125.782 203.5 120.506L166.093 122.118Z" fill="#F6D2A2"/>
<path d="M222.57 131.937C218.609 126.954 211.714 122.411 204.233 119.333L203.94 119.187H203.646L166.093 120.652C153.037 121.825 143.649 136.92 149.957 148.351C152.451 152.748 155.824 154.946 160.372 155.239C163.746 155.386 167.267 154.653 172.694 152.748C173.134 152.601 173.721 152.455 174.454 152.162C181.789 149.67 184.723 148.937 187.657 149.377H187.803C191.324 149.377 194.258 150.403 199.832 152.601C205.993 155.093 207.9 155.825 210.981 156.118C215.235 156.412 218.902 154.946 222.276 151.282C227.997 144.98 227.704 138.239 222.57 131.937ZM220.076 149.23C217.289 152.308 214.502 153.334 211.128 153.187C208.487 153.041 206.727 152.308 200.859 149.963C194.991 147.472 191.764 146.592 187.95 146.446C184.283 146.006 181.202 146.739 173.428 149.377C172.694 149.67 172.107 149.817 171.667 149.963C160.959 153.627 155.824 153.334 152.304 146.886C147.023 137.36 155.091 124.463 166.093 123.437L203.206 121.971C210.247 124.902 216.555 129.153 220.223 133.696C224.623 138.972 224.77 144.248 220.076 149.23Z" fill="#231F20"/>
<path d="M206.433 115.816C201.886 99.109 163.746 101.6 164.626 121.532C166.533 136.334 210.834 132.377 206.433 115.816Z" fill="black"/>
</svg>
