<svg width="551" height="569" viewBox="0 0 551 569" fill="none" xmlns="http://www.w3.org/2000/svg">
<path d="M414.397 416.497C418.082 385.815 416.977 381.316 439.843 386.286L445.648 386.795C463.229 387.595 486.229 383.969 499.74 377.695C528.827 364.207 546.074 341.685 517.394 347.603C451.972 361.092 447.474 338.951 447.474 338.951C516.556 236.507 545.434 106.464 520.508 74.6318C452.519 -12.1942 334.833 28.8638 332.864 29.9298L332.237 30.0455C319.311 27.3649 304.844 25.7633 288.593 25.5007C258.988 25.0145 236.523 33.2578 219.482 46.176C219.482 46.176 9.53701 -40.2717 19.3041 154.893C21.3813 196.41 78.8468 469.045 147.385 386.697C172.436 356.585 196.644 331.124 196.644 331.124C208.666 339.106 223.058 343.178 238.153 341.715L239.32 340.721C238.954 344.459 239.115 348.116 239.786 352.445C222.133 372.163 227.32 375.624 192.02 382.886C156.307 390.243 177.289 403.341 190.984 406.763C207.591 410.914 246.01 416.794 271.977 380.472L270.942 384.617C277.869 390.155 277.4 424.421 278.383 448.904C279.366 473.389 281.006 496.236 286 509.707C290.993 523.175 296.885 557.872 343.278 547.935C382.051 539.631 411.695 527.678 414.397 416.495" fill="black"/>
<path d="M414.397 416.497C418.082 385.815 416.977 381.316 439.843 386.286L445.648 386.795C463.229 387.595 486.229 383.969 499.74 377.695C528.827 364.207 546.074 341.685 517.394 347.603C451.972 361.092 447.474 338.951 447.474 338.951C516.556 236.507 545.434 106.464 520.508 74.6318C452.519 -12.1942 334.833 28.8638 332.864 29.9298L332.237 30.0455C319.311 27.3649 304.844 25.7633 288.593 25.5007C258.988 25.0145 236.523 33.2578 219.482 46.176C219.482 46.176 9.53701 -40.2717 19.3041 154.893C21.3813 196.41 78.8468 469.045 147.385 386.697C172.436 356.585 196.644 331.124 196.644 331.124C208.666 339.106 223.058 343.178 238.153 341.715L239.32 340.721C238.954 344.459 239.115 348.116 239.786 352.445C222.133 372.163 227.32 375.624 192.02 382.886C156.307 390.243 177.289 403.341 190.984 406.763C207.591 410.914 246.01 416.794 271.977 380.472L270.942 384.617C277.869 390.155 277.4 424.421 278.383 448.904C279.366 473.389 281.006 496.236 286 509.707C290.993 523.175 296.885 557.872 343.278 547.935C382.051 539.631 411.695 527.678 414.397 416.495" stroke="black" stroke-width="37.3953"/>
<path d="M517.4 347.6C451.972 361.089 447.474 338.949 447.474 338.949C516.556 236.498 545.434 106.452 520.513 74.624C452.524 -12.1969 334.833 28.8638 332.869 29.9298L332.237 30.0429C319.311 27.361 304.844 25.7633 288.585 25.4981C258.98 25.0132 236.523 33.2552 219.482 46.1708C219.482 46.1708 9.53311 -40.2731 19.2976 154.89C21.3748 196.41 78.839 469.045 147.38 386.697C172.432 356.585 196.637 331.124 196.637 331.124C208.659 339.106 223.052 343.178 238.14 341.715L239.312 340.721C238.948 344.459 239.114 348.116 239.781 352.445C222.124 372.163 227.313 375.624 192.015 382.886C156.299 390.243 177.281 403.341 190.98 406.764C207.587 410.914 246.009 416.794 271.97 380.472L270.935 384.617C277.853 390.155 282.711 420.641 281.897 448.277C281.083 475.913 280.539 494.887 285.99 509.707C291.442 524.527 296.875 557.872 343.276 547.935C382.049 539.631 402.141 518.11 404.937 482.213C406.92 456.693 411.409 460.465 411.692 437.649L415.293 426.847C419.445 392.253 415.952 381.092 439.84 386.283L445.645 386.793C463.227 387.592 486.238 383.967 499.743 377.693C528.824 364.204 546.072 341.683 517.397 347.6H517.4Z" fill="#336791"/>
<path d="M274.78 367.431C272.978 431.802 275.232 496.621 281.534 512.375C287.84 528.128 301.335 558.769 347.74 548.833C386.509 540.526 400.616 524.45 406.737 488.967C411.245 462.86 419.936 390.356 421.051 375.501" stroke="white" stroke-width="12.4651" stroke-linecap="round" stroke-linejoin="round"/>
<path d="M219.158 44.733C219.158 44.733 9.06614 -41.0881 18.8332 154.075C20.9104 195.595 78.3785 468.239 146.918 385.887C171.965 355.771 194.617 332.151 194.617 332.151" stroke="white" stroke-width="12.4651" stroke-linecap="round" stroke-linejoin="round"/>
<path d="M332.639 29.0692C325.367 31.3481 449.505 -16.2866 520.055 73.8115C544.975 105.641 516.097 235.687 447.016 338.14" stroke="white" stroke-width="12.4651" stroke-linecap="round" stroke-linejoin="round"/>
<path d="M447.015 338.14C447.015 338.14 451.516 360.287 516.946 346.789C545.614 340.871 528.361 363.395 499.286 376.891C475.425 387.959 421.928 390.796 421.054 375.501C418.805 336.039 449.21 348.028 447.016 338.14C445.032 329.235 431.435 320.495 422.44 298.701C414.588 279.678 314.747 133.796 450.129 155.462C455.088 154.437 414.819 26.7591 288.121 24.683C161.451 22.6069 165.607 180.374 165.607 180.374" stroke="white" stroke-width="12.4651" stroke-linecap="round" stroke-linejoin="bevel"/>
<path d="M239.32 351.635C221.66 371.351 226.853 374.813 191.553 382.078C155.837 389.436 176.822 402.531 190.517 405.952C207.124 410.106 245.546 415.986 271.507 379.654C279.413 368.593 271.46 350.943 260.6 346.443C255.353 344.271 248.337 341.549 239.32 351.635V351.635Z" stroke="white" stroke-width="12.4651" stroke-linecap="round" stroke-linejoin="round"/>
<path d="M238.163 351.291C236.384 339.699 241.974 325.905 247.965 309.766C256.969 285.552 277.743 261.335 261.125 184.525C248.738 127.287 165.658 172.613 165.606 180.374C165.555 188.133 169.363 219.712 164.218 256.487C157.503 304.474 194.769 345.059 237.681 340.907" stroke="white" stroke-width="12.4651" stroke-linecap="round" stroke-linejoin="round"/>
<path d="M218.395 179.211C218.02 181.861 223.251 188.935 230.07 189.88C236.878 190.829 242.705 185.301 243.075 182.653C243.444 180.002 238.22 177.083 231.398 176.134C224.586 175.183 218.757 176.566 218.396 179.211H218.395Z" fill="white" stroke="white" stroke-width="4.155"/>
<path d="M425.76 173.807C426.129 176.457 420.905 183.531 414.084 184.476C407.271 185.425 401.444 179.897 401.071 177.249C400.711 174.598 405.935 171.678 412.75 170.729C419.564 169.78 425.39 171.162 425.76 173.808V173.807Z" fill="white" stroke="white" stroke-width="2.0775"/>
<path d="M450.128 155.462C451.251 176.254 445.648 190.417 444.941 212.551C443.895 244.723 460.288 281.547 435.588 318.417" stroke="white" stroke-width="12.4651" stroke-linecap="round" stroke-linejoin="round"/>
</svg>
