<svg width="299" height="267" viewBox="0 0 299 267" fill="none" xmlns="http://www.w3.org/2000/svg">
<path d="M149.47 161.666C164.849 161.666 177.316 149.189 177.316 133.799C177.316 118.408 164.849 105.932 149.47 105.932C134.09 105.932 121.623 118.408 121.623 133.799C121.623 149.189 134.09 161.666 149.47 161.666Z" fill="#61DAFB"/>
<path d="M299.001 133.799C299.001 113.981 274.201 95.1999 236.178 83.5532C244.952 44.7714 241.053 13.9167 223.869 4.03829C219.909 1.72113 215.278 0.623538 210.22 0.623538V14.2216C213.023 14.2216 215.278 14.7704 217.167 15.807C225.454 20.5632 229.049 38.6736 226.246 61.9671C225.576 67.699 224.479 73.7358 223.138 79.8945C211.195 76.9676 198.155 74.7114 184.445 73.2479C176.219 61.9671 167.689 51.7228 159.097 42.7591C178.961 24.2829 197.607 14.1606 210.281 14.1606V0.562561C193.524 0.562561 171.588 12.5142 149.409 33.2466C127.229 12.6361 105.293 0.806473 88.5359 0.806473V14.4045C101.149 14.4045 119.856 24.4658 139.72 42.8201C131.189 51.7838 122.659 61.9671 114.555 73.2479C100.784 74.7114 87.7437 76.9676 75.8008 79.9555C74.3993 73.8577 73.3634 67.9429 72.6322 62.272C69.7683 38.9785 73.3025 20.8681 81.5285 16.0509C83.3565 14.9533 85.7329 14.4655 88.5359 14.4655V0.867449C83.4175 0.867449 78.7865 1.96505 74.7649 4.2822C57.6425 14.1606 53.8037 44.9543 62.6391 83.6141C24.7384 95.3219 0.0603027 114.042 0.0603027 133.799C0.0603027 153.617 24.8603 172.398 62.8828 184.044C54.1084 222.826 58.0082 253.681 75.1914 263.559C79.1521 265.876 83.7831 266.974 88.9015 266.974C105.658 266.974 127.594 255.022 149.774 234.29C171.954 254.9 193.89 266.73 210.647 266.73C215.765 266.73 220.396 265.632 224.418 263.315C241.54 253.437 245.379 222.643 236.544 183.983C274.322 172.337 299.001 153.556 299.001 133.799ZM219.665 93.1267C217.41 100.993 214.607 109.103 211.439 117.213C208.941 112.335 206.321 107.456 203.457 102.578C200.654 97.7 197.668 92.9437 194.682 88.3094C203.335 89.59 211.683 91.1754 219.665 93.1267ZM191.757 158.068C187.005 166.3 182.13 174.105 177.072 181.361C167.993 182.154 158.792 182.581 149.53 182.581C140.329 182.581 131.128 182.154 122.11 181.422C117.053 174.166 112.117 166.422 107.364 158.251C102.733 150.263 98.529 142.153 94.6902 133.982C98.4681 125.811 102.733 117.64 107.303 109.652C112.056 101.42 116.931 93.6145 121.988 86.3581C131.068 85.5654 140.269 85.1386 149.53 85.1386C158.731 85.1386 167.932 85.5654 176.951 86.2972C182.008 93.5535 186.944 101.298 191.696 109.469C196.327 117.457 200.532 125.567 204.371 133.738C200.532 141.909 196.327 150.08 191.757 158.068ZM211.439 150.141C214.729 158.312 217.532 166.483 219.848 174.41C211.865 176.361 203.457 178.008 194.743 179.288C197.729 174.593 200.715 169.776 203.518 164.836C206.321 159.958 208.941 155.019 211.439 150.141ZM149.652 215.204C143.985 209.35 138.319 202.825 132.713 195.691C138.197 195.935 143.803 196.118 149.469 196.118C155.197 196.118 160.864 195.996 166.409 195.691C160.925 202.825 155.258 209.35 149.652 215.204ZM104.318 179.288C95.6651 178.008 87.3172 176.422 79.3349 174.471C81.5894 166.605 84.3924 158.495 87.5609 150.385C90.0592 155.263 92.6794 160.141 95.5432 165.019C98.4071 169.898 101.332 174.654 104.318 179.288ZM149.348 52.3936C155.014 58.2474 160.681 64.772 166.287 71.9064C160.803 71.6625 155.197 71.4796 149.53 71.4796C143.803 71.4796 138.136 71.6015 132.591 71.9064C138.075 64.772 143.742 58.2474 149.348 52.3936ZM104.257 88.3094C101.271 93.0047 98.2853 97.8219 95.4823 102.761C92.6794 107.639 90.0592 112.518 87.5609 117.396C84.2705 109.225 81.4676 101.054 79.1521 93.1267C87.1344 91.2364 95.5433 89.59 104.257 88.3094ZM49.1119 164.653C27.5414 155.446 13.5876 143.372 13.5876 133.799C13.5876 124.225 27.5414 112.091 49.1119 102.944C54.3521 100.688 60.0799 98.6756 65.9905 96.7853C69.4637 108.737 74.0337 121.176 79.7005 133.921C74.0946 146.604 69.5855 158.983 66.1733 170.873C60.1408 168.983 54.4131 166.91 49.1119 164.653ZM81.8941 251.791C73.6072 247.034 70.0121 228.924 72.815 205.63C73.4853 199.899 74.5821 193.862 75.9226 187.703C87.8656 190.63 100.905 192.886 114.615 194.35C122.842 205.63 131.372 215.875 139.964 224.838C120.099 243.315 101.454 253.437 88.7796 253.437C86.0376 253.376 83.7221 252.827 81.8941 251.791ZM226.429 205.326C229.292 228.619 225.758 246.729 217.532 251.547C215.704 252.644 213.328 253.132 210.525 253.132C197.912 253.132 179.205 243.071 159.341 224.716C167.871 215.753 176.402 205.569 184.506 194.289C198.277 192.825 211.317 190.569 223.26 187.581C224.662 193.74 225.758 199.655 226.429 205.326ZM249.888 164.653C244.648 166.91 238.92 168.922 233.009 170.812C229.536 158.861 224.966 146.421 219.299 133.677C224.905 120.993 229.414 108.615 232.827 96.7243C238.859 98.6146 244.587 100.688 249.949 102.944C271.519 112.152 285.473 124.225 285.473 133.799C285.412 143.372 271.459 155.507 249.888 164.653Z" fill="#61DAFB"/>
</svg>
