<svg width="261" height="261" viewBox="0 0 261 261" fill="none" xmlns="http://www.w3.org/2000/svg">
<path d="M0 130.5V261H130.5H261V130.5V0H130.5H0V130.5Z" fill="#007ACC"/>
<path d="M57.7168 131.366L57.634 142.054H74.6197H91.6054L91.6054 190.319V238.583H103.62H115.634V190.319L115.634 142.054H132.62H149.605V131.573C149.605 125.773 149.481 120.926 149.315 120.801C149.191 120.636 128.518 120.553 103.454 120.594L57.8411 120.719L57.7168 131.366Z" fill="white"/>
<path d="M210.601 120.415C217.23 122.072 222.284 125.014 226.924 129.819C229.327 132.388 232.89 137.069 233.18 138.188C233.263 138.519 221.911 146.142 215.034 150.409C214.785 150.575 213.791 149.498 212.673 147.841C209.317 142.952 205.795 140.839 200.41 140.467C192.497 139.928 187.401 144.071 187.443 150.989C187.443 153.019 187.733 154.221 188.561 155.878C190.301 159.482 193.533 161.637 203.683 166.028C222.367 174.065 230.363 179.368 235.334 186.908C240.885 195.318 242.128 208.741 238.358 218.725C234.215 229.579 223.941 236.954 209.483 239.398C205.008 240.185 194.403 240.061 189.597 239.191C179.115 237.327 169.173 232.148 163.041 225.354C160.638 222.702 155.957 215.784 156.247 215.287C156.371 215.121 157.448 214.458 158.65 213.754C159.81 213.091 164.201 210.564 168.344 208.161L175.843 203.811L177.417 206.131C179.613 209.487 184.418 214.085 187.318 215.618C195.645 220.009 207.08 219.388 212.714 214.334C215.117 212.138 216.111 209.859 216.111 206.504C216.111 203.479 215.738 202.154 214.164 199.875C212.134 196.975 207.991 194.531 196.225 189.435C182.761 183.635 176.961 180.031 171.658 174.314C168.593 170.999 165.693 165.697 164.491 161.264C163.497 157.577 163.248 148.338 164.035 144.609C166.811 131.601 176.63 122.528 190.798 119.835C195.397 118.965 206.085 119.297 210.601 120.415Z" fill="white"/>
</svg>
